<?xml version="1.0" standalone="no"?>
<!DOCTYPE svg PUBLIC "-//W3C//DTD SVG 20010904//EN"
 "http://www.w3.org/TR/2001/REC-SVG-20010904/DTD/svg10.dtd">
<svg version="1.0" xmlns="http://www.w3.org/2000/svg"
 width="3334.000000pt" height="3334.000000pt" viewBox="0 0 3334.000000 3334.000000"
 preserveAspectRatio="xMidYMid meet">

<g transform="translate(0.000000,3334.000000) scale(0.100000,-0.100000)"
fill="#000000" stroke="none">
<path d="M15968 26051 c-130 -135 -232 -297 -316 -504 -65 -158 -113 -314
-212 -685 -161 -607 -256 -879 -430 -1237 -138 -282 -277 -509 -510 -826 -139
-189 -149 -200 -209 -228 -37 -18 -53 -33 -69 -66 l-21 -43 -158 -37 c-87 -20
-163 -38 -169 -40 -12 -3 -17 25 -30 156 -6 60 -3 76 30 170 79 220 142 510
172 791 33 300 20 759 -31 1048 -26 152 -78 362 -86 348 -15 -27 -101 -326
-139 -483 -123 -509 -172 -1033 -150 -1630 5 -148 6 -273 1 -278 -9 -9 -132
134 -351 408 -372 465 -579 700 -785 889 -118 108 -326 279 -332 272 -2 -1 26
-76 61 -165 49 -121 95 -212 186 -367 304 -516 482 -772 712 -1026 88 -97 264
-255 338 -304 l39 -26 -23 -47 c-36 -71 -174 -274 -261 -386 -266 -341 -701
-774 -1023 -1019 -35 -27 -65 -47 -66 -45 -11 12 -92 184 -135 285 -109 260
-206 580 -337 1114 -186 753 -266 1005 -423 1330 l-32 65 5 -155 c6 -177 21
-299 70 -595 32 -195 62 -472 53 -482 -6 -5 -319 -58 -492 -82 -244 -35 -443
-52 -675 -58 -356 -9 -657 23 -934 99 l-120 33 5 60 c11 147 2 522 -15 640
-42 298 -107 552 -261 1025 -48 146 -97 310 -111 365 -19 79 -47 304 -55 440
-1 26 -23 -91 -49 -270 -41 -276 -43 -636 -5 -985 9 -80 38 -305 65 -500 43
-307 82 -632 77 -636 -1 -1 -99 90 -217 203 -519 496 -840 742 -1260 966 -107
56 -400 191 -405 185 -5 -5 114 -190 173 -268 118 -157 607 -622 864 -822 172
-135 285 -199 577 -327 98 -43 216 -99 261 -124 l83 -45 -34 -15 c-19 -8 -63
-27 -99 -42 -98 -41 -448 -218 -600 -303 -436 -242 -832 -504 -1054 -694 -80
-70 -97 -69 164 -7 436 104 827 248 1143 419 70 38 218 126 329 196 343 215
458 261 673 271 141 6 295 -10 620 -67 431 -76 423 -75 755 -75 231 0 343 4
463 18 87 10 161 16 164 13 11 -11 1054 -3611 1068 -3686 8 -41 14 -117 15
-169 0 -84 -5 -108 -46 -240 -25 -80 -51 -151 -57 -157 -7 -6 -48 -24 -92 -40
-427 -152 -993 -627 -1510 -1269 -121 -149 -171 -230 -270 -430 -161 -328
-253 -646 -285 -990 -35 -382 25 -820 166 -1207 29 -82 34 -105 28 -147 -6
-50 -6 -50 29 -67 28 -14 41 -30 66 -85 16 -38 27 -69 23 -69 -3 0 -24 6 -47
14 -22 7 -60 18 -85 24 -41 10 -47 9 -63 -11 -185 -229 -297 -444 -402 -768
-25 -79 -86 -299 -135 -489 -128 -497 -182 -668 -291 -912 -117 -264 -268
-528 -585 -1024 -300 -471 -504 -817 -487 -827 45 -28 1976 -861 1998 -862 17
-1 40 -7 53 -14 20 -11 23 -9 33 16 32 85 142 453 230 768 162 583 234 813
339 1075 119 299 297 636 513 975 67 105 241 360 257 378 4 5 75 -47 156 -115
198 -164 431 -339 638 -476 92 -62 209 -145 260 -184 875 -677 2439 -1143
4386 -1307 569 -48 805 -51 1065 -11 980 148 2077 525 3344 1146 184 91 338
161 342 157 3 -5 251 -628 550 -1385 429 -1086 548 -1378 561 -1378 10 0 88
18 175 40 482 123 898 297 1413 593 121 69 443 258 449 263 6 6 -71 212 -144
387 -190 457 -407 873 -997 1910 -159 279 -286 512 -283 516 7 12 419 148 670
221 307 89 802 219 1147 300 365 86 408 105 482 213 127 188 61 439 -143 540
-63 31 -71 32 -191 33 -162 2 -235 21 -402 105 -318 160 -663 458 -1074 929
-190 217 -283 310 -434 430 -327 260 -694 452 -1177 615 -8 3 2 34 28 94 68
154 92 264 93 426 1 154 -15 228 -76 348 -16 33 -28 60 -26 61 60 36 94 65
119 99 42 58 83 140 105 212 10 33 19 62 21 64 1 2 39 -20 83 -49 136 -89 267
-125 371 -100 69 17 139 84 157 150 7 25 17 128 22 230 5 102 16 215 24 252
42 192 164 386 415 662 l123 136 33 -43 c44 -58 76 -77 128 -77 94 0 203 100
249 228 l23 65 170 59 c603 208 1386 770 1565 1123 30 59 32 70 28 133 -10
131 -115 297 -316 499 -249 250 -578 474 -952 647 -58 26 -113 56 -122 65 -10
9 -26 59 -38 116 -30 140 -127 426 -197 580 -154 340 -357 635 -627 913 l-130
133 13 127 c51 519 20 949 -95 1301 -70 213 -165 365 -257 413 -37 19 -53 20
-181 15 -112 -4 -166 -11 -261 -35 -226 -57 -498 -163 -778 -303 -293 -146
-422 -229 -637 -409 -132 -110 -148 -121 -175 -115 -146 30 -210 25 -296 -22
-66 -36 -93 -80 -85 -139 3 -24 13 -58 22 -75 8 -17 12 -35 7 -39 -25 -23
-267 -67 -524 -96 -145 -15 -164 -16 -252 -1 -124 21 -263 67 -357 116 -265
141 -270 144 -324 136 -175 -23 -246 -142 -246 -412 0 -115 0 -115 -22 -109
-129 35 -266 44 -343 22 -17 -5 -26 7 -60 81 -88 192 -243 389 -383 488 l-75
52 -403 1047 c-221 575 -417 1072 -434 1103 -79 140 -172 240 -271 293 -60 32
-72 35 -184 40 -114 6 -124 8 -205 47 -172 82 -529 215 -877 326 l-172 55 -73
-77z m403 -230 c145 -49 336 -117 423 -152 l159 -63 -196 -97 c-107 -54 -303
-146 -434 -205 -443 -198 -566 -271 -641 -383 -73 -110 -79 -230 -20 -410 42
-125 174 -392 383 -771 92 -168 221 -403 286 -522 l117 -217 -33 -103 c-19
-57 -81 -267 -140 -468 -162 -556 -236 -763 -306 -862 l-22 -31 -81 6 c-170
12 -347 80 -806 307 -187 93 -387 187 -445 209 -183 72 -199 74 -476 68 l-247
-5 -6 56 c-4 32 -9 73 -12 92 l-5 35 287 70 c157 38 299 77 314 86 30 18 291
373 413 560 301 463 510 947 682 1584 31 116 78 291 105 390 94 346 178 564
277 723 64 102 133 191 149 192 6 0 130 -40 275 -89z m991 -313 c56 -17 129
-85 192 -181 47 -72 99 -200 426 -1052 205 -533 375 -976 377 -982 4 -9 -6
-13 -30 -13 -63 0 -140 -21 -217 -58 -146 -71 -290 -251 -305 -382 -5 -43 -3
-47 45 -100 310 -336 567 -702 678 -967 13 -29 28 -53 36 -53 40 0 181 46 258
84 48 24 90 41 92 38 2 -4 57 -144 121 -312 163 -424 285 -663 763 -1492 675
-1170 946 -1672 1111 -2058 52 -123 151 -406 151 -434 0 -13 -165 -107 -490
-279 -310 -163 -653 -302 -1000 -401 -69 -20 -130 -38 -137 -41 -28 -10 -179
249 -302 516 -148 324 -262 625 -581 1539 -414 1186 -505 1414 -835 2100 -262
544 -911 1776 -1468 2785 -399 722 -481 927 -415 1040 46 79 160 145 538 313
124 55 339 157 479 226 335 166 418 193 513 164z m-3395 -1158 c25 -191 25
-686 -1 -885 -40 -317 -131 -674 -222 -880 l-18 -40 -9 145 c-11 197 -1 740
18 930 32 329 113 765 177 960 l12 35 12 -65 c7 -36 21 -126 31 -200z m-5185
-438 c189 -582 254 -882 273 -1257 6 -109 -5 -322 -21 -421 l-6 -39 84 -27
c441 -143 981 -170 1678 -82 127 16 584 90 608 99 8 3 12 32 12 97 0 118 -12
220 -55 493 -20 121 -38 234 -40 250 -8 52 54 -132 111 -330 30 -104 93 -343
139 -530 148 -603 225 -866 332 -1135 64 -161 193 -433 212 -444 12 -8 139 84
303 219 164 135 588 556 730 725 189 225 330 425 426 601 l42 76 -113 84
c-228 170 -462 434 -692 779 -189 284 -465 753 -452 767 9 8 374 -363 489
-497 63 -74 220 -265 348 -425 128 -159 276 -339 328 -400 53 -60 102 -118
111 -128 14 -16 12 -23 -18 -78 -18 -33 -31 -62 -28 -65 2 -3 35 2 73 11 l68
16 78 -78 77 -77 -68 -17 c-164 -42 -298 -141 -427 -315 -31 -42 -110 -159
-175 -261 -226 -351 -323 -470 -639 -783 -124 -124 -247 -255 -273 -291 -114
-162 -141 -314 -91 -516 42 -171 594 -1491 625 -1493 12 0 149 299 239 525 85
214 164 431 328 905 253 733 369 1032 518 1339 88 182 224 424 245 437 7 4
1507 -666 1528 -683 2 -1 -6 -41 -20 -88 l-23 -85 -91 0 c-107 0 -203 -19
-285 -56 -54 -24 -60 -30 -66 -63 -94 -564 -271 -1154 -446 -1492 l-60 -116
46 -44 47 -44 -149 -275 c-435 -805 -510 -945 -630 -1175 -249 -477 -408 -843
-618 -1420 -26 -71 -50 -133 -53 -137 -10 -12 -345 160 -448 230 -125 84 -210
166 -276 266 -92 138 -128 210 -134 268 -2 29 7 163 21 298 14 135 33 331 41
435 11 132 22 206 35 243 11 29 20 65 20 79 0 87 -179 739 -652 2368 -285 984
-522 1793 -526 1796 -4 4 -32 3 -62 -1 -175 -27 -395 -43 -610 -44 -264 0
-325 6 -690 69 -373 65 -486 78 -655 78 -256 -1 -377 -45 -725 -264 -402 -252
-662 -377 -1045 -502 -103 -34 -328 -98 -331 -94 -5 5 256 181 406 274 436
272 983 554 1225 633 39 12 73 25 77 29 4 3 -31 28 -76 56 l-83 50 -7 105
c-10 162 -33 354 -86 735 -27 193 -56 420 -65 505 -19 176 -32 598 -20 626 8
18 8 18 12 1 3 -10 45 -143 95 -295z m14681 -36 c90 -37 222 -446 256 -790 20
-201 10 -680 -14 -705 -3 -2 -44 26 -92 61 -48 36 -101 73 -118 83 -73 45 -72
42 -73 196 -3 244 -51 595 -101 741 -56 162 -107 184 -304 133 -324 -84 -778
-316 -1025 -523 -41 -34 -75 -62 -75 -62 -1 0 -62 -3 -136 -7 -157 -7 -156 -9
-44 98 290 279 937 618 1413 740 77 20 218 46 263 48 10 1 32 -5 50 -13z
m-16009 -506 c207 -123 449 -301 666 -491 100 -87 539 -499 589 -552 18 -20
-28 -3 -206 76 -376 168 -463 229 -888 613 -207 187 -412 394 -489 492 l-48
63 122 -61 c67 -34 181 -96 254 -140z m11055 -286 c170 -83 374 -352 462 -609
19 -56 24 -90 24 -175 0 -94 -3 -111 -27 -160 -49 -99 -160 -190 -287 -235
l-40 -14 -56 107 c-31 59 -93 163 -139 232 -46 69 -80 126 -76 128 18 7 140
-32 219 -69 46 -21 87 -36 92 -34 9 6 69 109 69 119 0 14 -167 86 -255 111
-49 14 -131 31 -181 38 l-90 12 -105 123 c-57 68 -117 138 -132 156 l-29 34
27 52 c49 97 149 179 260 217 71 23 176 10 264 -33z m1323 -242 c72 -49 185
-102 307 -142 287 -96 435 -93 1036 24 317 62 455 76 725 76 285 -1 406 -15
655 -80 261 -67 348 -98 536 -192 720 -359 1298 -1050 1521 -1816 l32 -112
-38 -118 c-355 -1088 -921 -2062 -1647 -2833 -116 -124 -117 -124 -124 -184
-32 -263 -175 -426 -500 -572 -91 -41 -308 -113 -341 -113 -9 0 -93 26 -184
57 -159 54 -168 59 -186 92 -28 52 -132 154 -183 179 -51 24 -49 25 74 41 302
40 613 238 723 461 57 117 83 227 89 386 6 148 -11 260 -53 353 -30 67 -130
203 -166 227 -15 11 -49 52 -74 92 -26 40 -48 71 -50 70 -1 -2 -21 -59 -44
-128 -23 -68 -63 -173 -90 -232 -105 -237 -183 -332 -336 -411 -84 -43 -311
-137 -331 -137 -5 0 -30 55 -57 123 -170 428 -433 920 -1194 2230 -89 153
-162 281 -162 285 0 13 253 140 340 170 146 51 239 66 395 65 106 -1 168 -7
255 -26 63 -13 117 -23 119 -21 3 3 -5 35 -17 72 -11 37 -24 87 -28 112 -9 60
-66 193 -111 259 -69 99 -227 214 -383 278 -209 86 -419 85 -615 -2 -88 -39
-205 -114 -260 -167 -28 -26 -55 -48 -61 -48 -14 0 -87 158 -144 309 -40 104
-43 116 -33 155 7 22 17 79 24 127 15 109 4 191 -58 446 -26 106 -43 196 -39
200 4 4 44 8 89 7 70 0 97 -6 182 -39 211 -81 275 -50 261 123 -22 282 -21
322 14 380 20 32 20 32 55 18 19 -8 54 -28 77 -44z m-2995 -562 c286 -534 524
-998 684 -1329 77 -157 139 -288 139 -291 0 -3 -100 -13 -222 -23 -371 -28
-788 -88 -1133 -163 l-160 -34 -15 22 c-87 130 -158 198 -256 246 l-51 25 19
61 c31 96 68 270 60 277 -4 3 -403 185 -887 404 -484 219 -887 401 -896 406
-32 17 -205 -251 -349 -544 -166 -335 -285 -638 -550 -1407 -192 -558 -393
-1094 -420 -1123 -4 -5 -13 6 -20 25 l-13 33 -10 -32 c-5 -18 -13 -33 -16 -33
-11 0 -450 1102 -466 1170 -21 92 -19 204 5 282 32 104 104 193 365 453 311
310 385 402 685 860 64 99 141 206 169 239 136 153 261 220 452 242 61 7 61 7
49 -15 -6 -13 -10 -24 -8 -26 2 -2 59 -8 127 -14 241 -22 349 -61 861 -311
212 -103 433 -206 492 -229 137 -53 280 -87 401 -96 92 -7 100 -6 150 18 129
64 210 246 403 907 52 179 107 363 121 409 l25 83 32 -58 c18 -33 123 -228
233 -434z m-1152 -1695 c177 -47 304 -189 336 -378 37 -221 -37 -544 -193
-848 -124 -242 -267 -371 -441 -399 -120 -19 -262 19 -397 106 l-58 38 27 56
c15 30 41 87 56 125 16 39 29 71 30 73 1 1 28 -11 61 -27 205 -101 354 -35
354 157 0 140 -63 223 -210 276 l-57 21 28 99 c16 54 30 101 33 103 2 2 24 -1
47 -8 64 -17 167 -14 216 6 88 35 173 161 173 254 0 98 -107 172 -270 187 -58
6 -70 10 -66 23 3 9 8 34 11 56 11 67 15 74 48 84 52 15 207 12 272 -4z m2132
-279 c9 -9 140 -336 215 -536 90 -241 177 -487 398 -1120 309 -884 472 -1296
644 -1625 73 -140 173 -295 238 -369 l43 -49 170 46 c459 124 836 279 1318
540 99 53 180 97 182 97 9 0 84 -133 80 -141 -4 -5 -17 -9 -30 -9 -46 0 -270
-71 -454 -144 -233 -93 -705 -304 -778 -348 -357 -216 -408 -550 -159 -1048
l63 -126 -226 -17 c-405 -31 -635 -61 -1121 -147 -307 -54 -491 -82 -720 -107
-197 -22 -879 -25 -1095 -5 -748 69 -1490 216 -2405 477 -224 64 -638 200
-653 214 -13 12 235 661 369 966 62 141 256 534 369 746 121 228 632 1175 661
1226 l24 41 77 -34 c116 -50 205 -67 326 -62 161 7 279 58 407 176 137 125
276 366 364 630 61 185 86 308 94 472 l7 134 35 8 c264 56 726 108 1095 122
104 4 456 -2 462 -8z m7214 -130 c203 -103 372 -208 539 -336 136 -105 364
-336 433 -441 75 -114 83 -138 61 -181 -30 -58 -99 -141 -200 -238 -372 -358
-978 -716 -1388 -820 -44 -11 -81 -18 -84 -15 -2 2 27 53 65 112 l70 108 99
36 c199 72 389 172 634 334 259 172 441 340 456 423 14 74 -64 196 -205 319
-116 102 -313 247 -444 329 -59 37 -112 74 -116 83 -7 12 -31 264 -31 320 0
19 19 13 111 -33z m-12636 -3113 c-5 -51 -13 -71 -47 -115 -123 -163 -174
-364 -133 -523 59 -228 249 -436 572 -627 57 -34 100 -64 96 -68 -6 -5 -1401
-1165 -2145 -1782 l-47 -39 -20 65 c-62 202 -95 438 -95 681 1 388 81 707 271
1087 71 141 101 187 195 305 439 548 920 974 1278 1130 l75 33 3 -43 c2 -23 1
-70 -3 -104z m8922 -108 c63 -19 128 -85 176 -181 39 -77 54 -119 40 -111 -5
3 -75 11 -156 17 -321 25 -595 -33 -793 -168 -77 -52 -179 -161 -227 -243
-152 -260 -135 -653 39 -890 l36 -49 111 0 c438 0 1187 -78 1484 -154 l45 -11
164 -435 c371 -982 582 -1517 707 -1791 198 -435 441 -893 914 -1725 641
-1126 852 -1535 1040 -2013 37 -94 42 -116 31 -126 -7 -7 -107 -68 -223 -135
-244 -141 -604 -323 -790 -400 -271 -111 -665 -235 -684 -214 -4 5 -391 981
-860 2169 l-852 2160 -169 340 c-161 323 -301 586 -739 1380 -279 505 -319
574 -481 835 -235 376 -302 502 -366 681 -31 87 -37 121 -41 209 -4 91 -2 113
17 163 49 129 138 201 395 317 737 334 1019 423 1182 375z m469 -240 c2 -11
-1 -37 -8 -58 l-14 -38 -46 118 -47 118 55 -60 c30 -33 57 -69 60 -80z m-231
-284 c456 -76 750 -217 886 -425 106 -162 108 -399 3 -624 -27 -61 -37 -73
-51 -67 -97 37 -467 120 -668 149 -60 9 -126 19 -145 22 l-34 6 54 35 c114 72
315 164 393 178 20 4 37 12 37 17 0 11 -50 212 -54 216 -8 8 -206 -66 -306
-114 -128 -61 -306 -176 -390 -252 l-55 -49 -105 8 c-58 4 -208 13 -335 18
-263 12 -243 3 -278 116 -32 102 -32 292 1 387 77 222 267 357 557 397 101 14
351 5 490 -18z m-7360 -1172 c83 -23 259 -69 393 -103 l244 -62 -107 -124
c-861 -1004 -1481 -2062 -1684 -2875 -57 -227 -88 -525 -74 -697 l9 -97 -36
21 c-307 185 -873 640 -1180 952 l-84 86 28 87 c72 222 230 585 362 827 405
744 904 1324 1521 1764 157 112 424 273 443 267 8 -2 83 -23 165 -46z m5316
-277 c-437 -869 -768 -2022 -930 -3241 -16 -122 -31 -224 -33 -226 -4 -4 -383
-79 -553 -109 -248 -45 -874 -136 -928 -136 -13 0 -3 117 33 408 121 958 360
1850 704 2625 89 199 265 547 279 552 29 8 727 126 857 145 144 20 602 69 608
64 2 -1 -15 -38 -37 -82z m-3091 -162 c129 -11 260 -24 291 -28 l57 -7 -88
-149 c-551 -927 -913 -2099 -1055 -3412 l-7 -62 -66 -7 c-109 -12 -1232 -9
-1244 3 -8 8 -7 54 1 154 87 1036 538 2156 1362 3378 l138 205 188 -27 c103
-14 294 -36 423 -48z m7362 -754 l37 -44 -96 -80 c-54 -45 -98 -80 -100 -78
-3 3 60 161 87 219 7 15 18 27 24 27 7 0 28 -20 48 -44z m-3049 -308 c234
-427 282 -519 435 -824 161 -321 228 -472 215 -485 -23 -23 -582 -259 -863
-364 -176 -66 -322 -117 -325 -113 -2 2 1 62 6 133 34 500 115 1008 234 1470
50 196 131 465 139 465 2 0 74 -127 159 -282z m-10201 -679 l126 -51 115 -171
c203 -305 410 -557 699 -852 93 -93 168 -171 168 -173 0 -2 -31 -47 -68 -100
-337 -476 -588 -922 -763 -1354 -82 -204 -171 -475 -264 -808 -153 -546 -176
-627 -212 -745 -20 -66 -38 -121 -39 -123 -2 -4 -1616 698 -1626 707 -8 7 124
226 388 641 389 612 530 870 669 1220 70 178 108 305 215 720 131 507 191 691
292 895 53 105 144 245 160 245 7 0 70 -23 140 -51z"/>
<path d="M20960 21559 c-67 -11 -180 -48 -180 -58 0 -9 77 -55 240 -141 202
-107 309 -197 368 -309 85 -158 57 -324 -92 -551 -37 -56 -65 -104 -62 -107 2
-3 31 3 63 12 222 65 376 215 428 420 64 252 -78 532 -335 658 -52 26 -122 54
-155 62 -78 20 -206 26 -275 14z"/>
<path d="M20942 20131 c-111 -109 -157 -259 -119 -383 l15 -47 -64 -42 c-80
-51 -144 -122 -181 -197 -23 -47 -28 -70 -28 -132 1 -89 22 -139 85 -193 84
-71 228 -77 360 -15 41 20 84 42 94 50 18 14 22 12 50 -26 78 -101 175 -142
315 -133 85 5 181 31 181 48 0 4 -26 16 -57 24 -240 67 -322 130 -331 254 -6
86 21 141 88 179 l52 30 44 -33 c94 -72 249 -105 311 -66 70 44 67 142 -11
306 -72 152 -171 286 -238 321 -115 60 -208 -61 -208 -273 l0 -81 -35 -22
c-57 -35 -90 -40 -148 -23 -35 10 -65 29 -93 57 -73 72 -80 147 -34 332 35
139 32 124 21 124 -5 0 -36 -26 -69 -59z"/>
<path d="M22250 19346 c-57 -16 -144 -60 -195 -99 -53 -40 -115 -99 -115 -109
0 -4 64 -5 143 -2 126 6 152 4 227 -15 178 -45 280 -145 327 -324 17 -65 22
-240 14 -484 -3 -68 -1 -126 2 -130 4 -3 28 12 54 34 107 89 195 228 230 363
23 87 23 254 0 340 -58 216 -208 374 -404 425 -68 18 -220 18 -283 1z"/>
<path d="M12350 10555 c-10 -11 -9 -24 4 -62 16 -46 52 -341 43 -350 -6 -5
-14 46 -23 144 -5 57 -12 82 -36 118 l-30 45 -30 -25 c-17 -15 -37 -24 -45
-21 -8 4 -19 6 -23 6 -5 0 -21 11 -36 25 -41 38 -134 60 -134 31 0 -8 -15 -20
-34 -26 -19 -6 -41 -22 -50 -34 -8 -13 -39 -50 -69 -82 -60 -65 -110 -157
-152 -279 -15 -44 -88 -231 -163 -415 -126 -314 -135 -340 -138 -412 -5 -98
10 -102 62 -18 20 33 38 60 40 60 2 0 -9 -25 -23 -56 -47 -104 -41 -163 20
-189 18 -7 43 -25 57 -40 22 -23 24 -34 22 -93 -2 -37 -8 -84 -13 -106 -6 -21
-8 -40 -5 -43 9 -10 70 7 104 27 27 17 46 46 93 145 33 69 64 125 70 125 14 0
71 -30 92 -48 9 -8 20 -12 23 -9 4 3 70 -26 148 -65 77 -39 166 -79 196 -88
l55 -18 7 -100 c8 -123 30 -175 83 -192 57 -19 75 -7 75 51 0 39 4 51 18 55 9
3 25 10 36 16 23 12 30 5 50 -57 22 -69 43 -97 69 -93 20 3 22 10 25 68 8 167
-33 507 -71 600 -17 40 -86 348 -117 520 -35 198 -50 349 -50 511 0 194 -9
243 -56 311 -55 78 -72 90 -94 63z m-437 -514 c-15 -28 -29 -48 -31 -47 -8 9
42 96 55 96 2 0 -8 -22 -24 -49z m522 -216 c8 -60 14 -118 14 -129 -2 -24 -23
97 -34 189 -12 103 4 55 20 -60z m22 -202 c-3 -10 -5 -2 -5 17 0 19 2 27 5 18
2 -10 2 -26 0 -35z m-288 -122 c12 -79 19 -146 16 -149 -6 -6 -125 43 -150 62
-16 12 -12 22 45 125 34 62 64 111 65 109 2 -2 13 -68 24 -147z m395 -466 c5
-19 4 -26 -2 -20 -6 6 -13 30 -16 55 -6 45 2 30 18 -35z"/>
<path d="M12916 10038 c15 -154 8 -536 -14 -798 -25 -301 -18 -349 53 -396 28
-18 30 -35 14 -82 -9 -27 -14 -30 -29 -22 -29 16 -77 12 -84 -6 -20 -53 1 -99
54 -115 l40 -12 -31 -27 -32 -26 20 -39 c27 -53 37 -112 21 -117 -8 -3 -14
-31 -16 -76 -5 -82 -20 -71 138 -98 52 -8 99 -18 105 -22 5 -3 35 -7 65 -8 67
-3 342 -94 462 -155 70 -35 87 -40 110 -31 17 6 30 6 36 0 5 -5 27 -15 48 -23
47 -16 74 -5 74 29 0 28 18 45 45 44 11 0 26 1 34 3 8 3 18 -11 27 -36 17 -47
38 -65 76 -65 35 0 43 26 36 118 -8 106 -48 191 -122 259 -88 82 -267 193
-311 193 -12 0 -392 89 -402 95 -1 0 2 18 8 40 22 94 29 255 19 478 -6 143 -6
293 0 400 5 95 12 243 16 329 l6 157 -33 20 c-19 12 -46 21 -61 21 l-28 0 -1
-77 c-1 -59 -3 -69 -8 -43 -9 43 -23 70 -49 93 -19 18 -22 18 -46 2 -33 -22
-91 -13 -107 16 -10 20 -101 69 -128 69 -11 0 -12 -17 -5 -92z m351 -210 c-3
-7 -5 -2 -5 12 0 14 2 19 5 13 2 -7 2 -19 0 -25z m-10 -360 c-2 -24 -4 -5 -4
42 0 47 2 66 4 43 2 -24 2 -62 0 -85z m-30 -550 c-2 -18 -4 -4 -4 32 0 36 2
50 4 33 2 -18 2 -48 0 -65z m150 -414 c-3 -3 -12 -4 -19 -1 -8 3 -5 6 6 6 11
1 17 -2 13 -5z m423 -149 c17 -9 30 -18 30 -21 0 -4 -59 23 -69 32 -10 9 13 3
39 -11z"/>
<path d="M21726 9989 c-110 -16 -230 -60 -405 -147 -121 -60 -179 -95 -189
-112 -8 -14 -33 -39 -55 -55 -67 -51 -210 -207 -268 -295 -73 -109 -119 -202
-162 -326 -62 -178 -72 -252 -71 -499 0 -193 3 -230 22 -300 83 -306 301 -473
539 -411 89 22 161 61 183 99 22 36 47 53 139 92 35 14 81 38 103 51 l40 25
23 -25 c27 -29 40 -31 75 -11 34 20 43 18 37 -5 -7 -26 9 -36 63 -43 44 -6 46
-5 111 59 37 35 72 64 78 64 14 0 34 76 26 100 -19 59 -123 17 -156 -62 -7
-17 -28 -37 -50 -49 -47 -23 -49 -23 -49 -1 0 10 33 49 73 88 l72 70 99 -2 99
-1 -6 81 c-4 44 -13 99 -21 122 -24 65 -39 211 -33 309 6 98 23 260 33 314 7
33 7 33 -29 29 l-35 -4 14 28 c20 38 18 76 -3 80 -29 6 -136 -13 -168 -29 -16
-9 -44 -28 -62 -44 -20 -17 -71 -40 -130 -59 -91 -29 -125 -33 -163 -16 -12 5
-23 -8 -43 -49 -15 -30 -27 -60 -27 -65 0 -6 15 -10 33 -11 31 0 31 0 7 -10
-40 -16 -80 -60 -80 -88 -1 -35 -27 -90 -89 -186 -28 -44 -51 -83 -51 -87 0
-10 189 1 215 12 24 10 137 31 141 27 2 -2 1 -39 -2 -83 l-7 -80 -121 -64
c-120 -65 -121 -65 -203 -65 l-82 0 -46 45 c-76 74 -131 268 -122 430 5 104
59 273 116 370 77 129 196 226 333 271 99 32 163 32 214 -2 l39 -26 53 33 c67
44 70 72 11 111 -51 34 -145 42 -227 20 -57 -15 -59 -7 -3 12 19 6 98 11 182
11 164 0 161 -1 135 62 -14 33 -14 37 10 72 23 33 29 36 55 31 24 -5 45 2 110
40 75 44 79 49 64 65 -30 33 -130 79 -195 89 -74 12 -110 12 -194 0z m-616
-682 c0 -2 -10 -12 -22 -23 l-23 -19 19 23 c18 21 26 27 26 19z m-102 -152
c-6 -14 -13 -23 -15 -21 -5 5 15 46 22 46 3 0 -1 -11 -7 -25z m857 -75 c-3 -5
-12 -10 -18 -10 -7 0 -6 4 3 10 19 12 23 12 15 0z m-252 -97 c-7 -2 -19 -2
-25 0 -7 3 -2 5 12 5 14 0 19 -2 13 -5z m328 -283 c-8 -90 -8 -91 -10 -29 -1
60 7 134 14 127 2 -2 0 -46 -4 -98z m-342 -362 c0 -24 -3 -37 -6 -30 -2 6 -16
12 -31 12 l-26 0 29 30 c16 17 30 30 32 30 2 0 3 -19 2 -42z m-484 -127 c28
-11 42 -20 32 -20 -32 -1 -82 26 -117 65 l-35 39 35 -32 c19 -17 58 -41 85
-52z"/>
<path d="M20374 9575 c-20 -13 -21 -21 -16 -158 3 -86 1 -151 -5 -162 -7 -12
-9 5 -5 58 5 88 -1 120 -28 147 -28 28 -45 25 -69 -14 -25 -40 -69 -58 -120
-50 -23 4 -53 -1 -85 -13 l-49 -18 2 -146 c2 -97 -2 -154 -10 -172 -10 -21
-10 -33 0 -54 10 -21 10 -66 0 -215 -7 -103 -16 -188 -20 -188 -11 0 -111 123
-186 228 -79 111 -186 317 -234 452 l-37 105 -45 -2 c-53 -1 -87 -17 -87 -41
0 -9 22 -56 49 -104 27 -49 47 -88 45 -88 -2 0 -19 25 -38 55 -56 87 -124 111
-152 52 -8 -18 -31 -43 -51 -56 -31 -20 -39 -21 -59 -10 -19 10 -35 9 -89 -6
-36 -9 -65 -19 -65 -21 0 -3 13 -31 30 -64 16 -32 26 -61 22 -63 -4 -2 -30
-12 -58 -21 l-51 -17 -34 -122 -34 -122 0 -420 c0 -437 -9 -556 -50 -716 -16
-60 -16 -64 1 -76 25 -19 89 -16 105 3 8 10 19 64 25 123 l11 106 2 -80 c1
-81 17 -125 45 -125 6 0 27 11 46 25 36 26 105 35 112 14 4 -11 127 -34 135
-26 2 2 6 75 9 163 4 87 11 167 16 177 6 11 6 23 0 30 -6 8 -7 66 -1 157 9
153 30 424 33 427 1 1 28 -44 61 -100 99 -173 202 -331 240 -370 42 -44 74
-54 116 -37 35 15 41 10 57 -45 16 -57 48 -104 76 -115 29 -10 80 2 106 25 16
14 17 11 12 -59 -4 -64 -1 -79 19 -116 l24 -42 51 6 c29 3 71 15 95 26 39 18
40 20 14 17 -16 -3 -38 -8 -49 -12 -16 -7 -17 -6 -7 13 6 11 11 36 11 55 0 29
7 41 44 71 24 20 47 36 50 36 3 0 6 -15 6 -34 0 -81 86 -90 114 -12 15 42 31
279 30 436 -1 91 -6 260 -12 375 -11 230 -3 447 23 635 9 63 19 149 22 191 5
74 5 76 -22 97 -32 26 -62 28 -91 7z m-43 -690 c-7 -129 -8 -137 -10 -59 -1
86 8 218 15 211 2 -1 0 -70 -5 -152z m-1211 80 c0 -16 -27 -32 -37 -22 -3 4
-3 13 0 22 8 20 37 20 37 0z m534 -142 c9 -18 14 -33 12 -33 -6 0 -36 55 -36
66 0 11 5 3 24 -33z m41 -73 c9 -16 13 -30 11 -30 -3 0 -12 14 -21 30 -9 17
-13 30 -11 30 3 0 12 -13 21 -30z m-658 -162 c-2 -18 -4 -6 -4 27 0 33 2 48 4
33 2 -15 2 -42 0 -60z m923 -258 c0 -22 -3 -20 -31 20 -16 25 -37 59 -45 75
-12 24 -5 19 30 -20 28 -31 46 -60 46 -75z m358 -85 c0 -27 -4 -61 -8 -75 -5
-16 -8 11 -8 75 0 64 3 91 8 75 4 -14 8 -47 8 -75z m-1301 -152 c-2 -16 -4 -5
-4 22 0 28 2 40 4 28 2 -13 2 -35 0 -50z m-10 -115 c-2 -18 -4 -6 -4 27 0 33
2 48 4 33 2 -15 2 -42 0 -60z"/>
<path d="M14463 9395 c-7 -8 -13 -25 -13 -39 0 -33 -59 -81 -133 -108 -104
-38 -122 -63 -93 -133 12 -29 12 -34 0 -39 -23 -9 -16 -40 30 -131 38 -77 42
-91 33 -116 -10 -24 -8 -33 10 -56 18 -24 27 -28 67 -26 l47 1 -6 -31 c-16
-98 -45 -424 -46 -512 0 -123 14 -166 66 -196 l36 -22 -6 -72 c-11 -115 25
-185 96 -185 26 0 30 5 40 46 7 26 19 48 28 51 9 2 24 9 35 15 22 12 36 -4 36
-40 0 -12 7 -38 14 -57 11 -26 21 -35 39 -35 39 0 49 39 58 240 5 102 11 198
14 213 2 16 0 60 -5 98 -12 85 2 371 29 603 11 89 22 190 26 225 3 36 15 82
27 104 14 28 17 42 9 50 -6 6 -11 23 -11 38 0 35 -44 71 -79 67 -23 -3 -26 -8
-29 -47 l-3 -44 -39 38 c-31 31 -42 36 -53 27 -11 -9 -22 -9 -50 3 -20 8 -39
19 -42 25 -7 11 -99 60 -112 60 -4 -1 -14 -7 -20 -15z m263 -665 c-12 -81 -14
-89 -10 -35 7 106 18 193 21 165 2 -14 -3 -72 -11 -130z m-46 -570 l-11 -25 6
25 c2 14 5 34 6 45 2 19 2 19 6 0 2 -12 -1 -32 -7 -45z"/>
<path d="M15645 9343 c-11 -2 -54 -15 -95 -29 -41 -13 -100 -28 -130 -34 -30
-6 -59 -16 -65 -23 -5 -8 -46 -32 -90 -55 -133 -69 -218 -151 -272 -260 -26
-53 -28 -65 -28 -182 1 -115 3 -131 32 -207 97 -255 305 -393 590 -393 127 1
193 34 193 100 0 22 22 34 84 45 l36 7 -6 -88 c-12 -175 -51 -274 -127 -318
-23 -13 -76 -34 -117 -46 -59 -18 -82 -30 -110 -61 l-36 -38 -87 59 c-121 83
-191 98 -218 49 -15 -29 -4 -52 51 -98 42 -35 49 -47 48 -75 -1 -18 2 -38 6
-44 10 -17 4 -15 -66 13 -79 32 -108 33 -108 2 0 -12 11 -39 25 -60 21 -30 51
-50 156 -101 268 -133 365 -145 551 -71 88 35 107 48 192 127 149 139 206 244
227 420 6 51 14 300 18 553 l8 460 -26 28 c-17 19 -34 27 -51 25 -33 -4 -40
-45 -35 -213 4 -128 4 -128 -4 -30 -8 100 -34 183 -61 200 -9 5 -22 -3 -39
-23 -23 -28 -30 -31 -63 -26 -28 5 -38 12 -40 28 -2 15 -18 27 -56 42 -50 20
-52 22 -32 35 21 14 21 14 -9 49 -19 22 -30 46 -31 65 0 26 5 32 32 40 23 7
40 22 55 50 13 22 23 45 23 51 0 22 -252 44 -325 27z m215 -313 c0 -5 -21 -10
-47 -9 -39 1 -43 2 -23 9 36 12 70 12 70 0z m-112 -17 c-10 -2 -26 -2 -35 0
-10 3 -2 5 17 5 19 0 27 -2 18 -5z m-61 -9 c-3 -3 -12 -4 -19 -1 -8 3 -5 6 6
6 11 1 17 -2 13 -5z m-297 -116 c-38 -25 -74 -59 -91 -87 -33 -51 -38 -48 -10
7 23 44 41 62 101 96 69 40 69 31 0 -16z m446 16 c19 -5 23 -16 28 -72 4 -37
9 -88 12 -114 l6 -47 -49 -6 c-26 -4 -69 -13 -94 -21 -25 -8 -104 -16 -177
-19 -127 -5 -132 -4 -159 19 -42 36 -38 85 13 137 80 83 190 128 319 128 44 1
90 -2 101 -5z m39 -343 c-3 -10 -1 -30 4 -44 l10 -25 -34 21 -34 22 25 23 c31
27 37 28 29 3z m-365 -71 c20 -6 21 -8 5 -8 -11 0 -33 4 -50 8 -27 7 -27 8 -5
8 14 0 36 -4 50 -8z m305 -931 c-22 -10 -47 -18 -55 -18 -8 0 5 8 30 19 59 24
76 24 25 -1z"/>
<path d="M17943 9293 c-10 -3 -13 -50 -15 -176 -2 -158 -2 -163 -7 -66 -6 105
-12 125 -51 156 -12 10 -20 7 -45 -22 -33 -37 -90 -50 -119 -26 -11 10 -31 11
-78 4 l-62 -8 2 -150 c1 -107 -2 -159 -11 -180 -12 -25 -12 -33 0 -52 13 -19
13 -49 2 -212 -7 -105 -16 -191 -19 -191 -9 1 -136 183 -197 285 -106 177
-207 401 -249 553 l-17 62 -64 0 c-46 0 -65 -4 -69 -14 -3 -8 16 -59 43 -113
60 -123 64 -135 17 -55 -34 59 -77 101 -116 115 -12 4 -23 -4 -37 -28 -12 -20
-35 -41 -57 -50 -34 -14 -38 -14 -49 1 -9 13 -27 17 -81 15 -37 -1 -70 -4 -73
-7 -3 -2 5 -28 18 -57 39 -88 40 -84 -23 -92 l-56 -7 -15 -52 c-8 -28 -20 -73
-26 -101 -7 -27 -18 -62 -25 -77 -11 -22 -12 -92 -5 -390 8 -330 7 -377 -10
-518 -11 -85 -27 -188 -36 -228 -16 -71 -16 -73 3 -93 11 -11 36 -22 56 -25
46 -8 56 9 67 114 8 72 8 73 10 23 1 -55 31 -121 54 -121 7 1 23 7 37 15 34
19 110 20 110 1 0 -13 105 -56 137 -56 10 0 13 33 13 150 0 119 3 158 16 182
12 24 13 32 4 38 -10 6 -11 36 -6 121 12 213 27 414 32 438 4 20 24 -11 103
-160 160 -304 207 -376 263 -405 23 -12 36 -13 61 -5 33 12 47 3 47 -30 0 -34
33 -110 60 -139 23 -24 36 -30 71 -30 24 0 50 7 59 15 15 14 17 9 16 -72 -1
-76 2 -93 22 -125 l24 -38 71 1 c80 0 123 11 94 22 -10 4 -28 2 -42 -3 -24 -9
-24 -9 -19 38 8 67 8 67 58 95 l46 26 0 -35 c0 -39 36 -84 68 -84 40 0 55 35
63 148 4 59 11 130 16 157 12 69 9 232 -6 485 -19 313 -10 544 35 829 13 83
14 111 5 142 -16 52 -71 81 -118 62z m-1255 -376 c2 -12 -3 -17 -17 -17 -15 0
-21 6 -21 21 0 25 33 22 38 -4z m1217 -334 c-4 -85 -9 -152 -12 -149 -3 2 -2
78 3 168 4 90 9 157 12 150 2 -8 1 -84 -3 -169z m-1304 -3 l-9 -45 -1 37 c-1
20 2 44 6 54 11 29 14 2 4 -46z m905 -412 c14 -20 24 -45 22 -55 -3 -12 -17 4
-46 54 -63 108 -52 108 24 1z m-935 -228 l-10 -55 4 55 c3 30 6 78 7 105 l2
50 3 -50 c2 -27 -1 -75 -6 -105z m1316 -23 c-2 -23 -3 -1 -3 48 0 50 1 68 3
42 2 -26 2 -67 0 -90z m-1330 -209 c-3 -8 -6 -5 -6 6 -1 11 2 17 5 13 3 -3 4
-12 1 -19z"/>
<path d="M18633 9293 c-10 -3 -13 -45 -15 -151 -1 -140 -2 -142 -7 -51 -6 98
-14 119 -54 141 -17 9 -24 6 -47 -22 -30 -37 -99 -56 -122 -35 -7 7 -44 16
-82 20 l-69 7 6 -64 c15 -151 19 -284 9 -309 -8 -19 -7 -30 1 -38 13 -13 -1
-300 -32 -691 -20 -245 -18 -305 14 -340 10 -11 31 -20 47 -20 33 0 34 -3 8
-100 -25 -95 -25 -121 1 -154 15 -20 29 -26 57 -26 50 0 60 8 81 66 12 32 30
57 51 72 49 33 60 29 60 -22 0 -83 55 -111 95 -50 39 60 103 507 83 579 -4 16
-8 165 -8 329 0 280 4 376 31 711 9 119 9 130 -7 142 -17 13 -77 16 -101 6z
m-26 -655 c-2 -24 -4 -7 -4 37 0 44 2 63 4 43 2 -21 2 -57 0 -80z m-10 -115
c-3 -10 -5 -4 -5 12 0 17 2 24 5 18 2 -7 2 -21 0 -30z m0 -45 c-3 -8 -6 -5 -6
6 -1 11 2 17 5 13 3 -3 4 -12 1 -19z m-26 -523 l-9 -40 -1 42 c-1 23 2 50 6
60 7 17 8 17 11 -2 1 -11 -1 -38 -7 -60z"/>
</g>
</svg>
